<?xml version="1.0" encoding="UTF-8" standalone="no"?>
<!-- Created with Inkscape (http://www.inkscape.org/) -->

<svg
   xmlns:dc="http://purl.org/dc/elements/1.1/"
   xmlns:cc="http://creativecommons.org/ns#"
   xmlns:rdf="http://www.w3.org/1999/02/22-rdf-syntax-ns#"
   xmlns:svg="http://www.w3.org/2000/svg"
   xmlns="http://www.w3.org/2000/svg"
   xmlns:sodipodi="http://sodipodi.sourceforge.net/DTD/sodipodi-0.dtd"
   xmlns:inkscape="http://www.inkscape.org/namespaces/inkscape"
   width="68"
   height="35"
   viewBox="0 0 68.000002 34.999998"
   id="svg4866"
   version="1.1"
   inkscape:version="0.91 r13725"
   sodipodi:docname="tortuga_small_1_1.svg">
  <defs
     id="defs4868" />
  <sodipodi:namedview
     id="base"
     pagecolor="#ffffff"
     bordercolor="#666666"
     borderopacity="1.0"
     inkscape:pageopacity="0.0"
     inkscape:pageshadow="2"
     inkscape:zoom="1.979899"
     inkscape:cx="35.283704"
     inkscape:cy="-10.184716"
     inkscape:document-units="px"
     inkscape:current-layer="layer1"
     showgrid="false"
     fit-margin-top="0"
     fit-margin-left="0"
     fit-margin-right="0"
     fit-margin-bottom="0"
     units="px"
     inkscape:window-width="1366"
     inkscape:window-height="720"
     inkscape:window-x="0"
     inkscape:window-y="0"
     inkscape:window-maximized="1" />
  <metadata
     id="metadata4871">
    <rdf:RDF>
      <cc:Work
         rdf:about="">
        <dc:format>image/svg+xml</dc:format>
        <dc:type
           rdf:resource="http://purl.org/dc/dcmitype/StillImage" />
        <dc:title></dc:title>
      </cc:Work>
    </rdf:RDF>
  </metadata>
  <g
     inkscape:label="Layer 1"
     inkscape:groupmode="layer"
     id="layer1"
     transform="translate(-200.51407,-406.36528)">
    <path
       style="fill:#00ff00;fill-rule:evenodd;stroke:#000000;stroke-width:1.8363502px;stroke-linecap:butt;stroke-linejoin:miter;stroke-opacity:1"
       d="m 222.81241,425.12906 4.90275,7.2325 c 0,0 8.72279,4.6296 18.47228,4.5555 9.74946,-0.074 12.29744,-4.3952 12.29744,-4.3952 z"
       id="path4701-2"
       inkscape:connector-curvature="0"
       sodipodi:nodetypes="ccccc" />
    <path
       style="fill:#008000;fill-rule:evenodd;stroke:#000000;stroke-width:1.8363502px;stroke-linecap:butt;stroke-linejoin:miter;stroke-opacity:1"
       d="m 218.31796,422.62796 c 0,0 -0.6362,-3.8965 1.97621,-7.0809 3.99589,-4.8707 12.8725,-9.6017 21.94051,-8.137 14.99646,2.4226 18.5879,20.0745 24.56012,22.9438 2.90619,2.1616 -12.81242,4.7388 -25.44248,3.1147 -7.14056,-0.9185 -10.90504,-4.5894 -15.14479,-7.3236 -3.25945,-2.1021 -7.88957,-3.517 -7.88957,-3.517 z"
       id="path4699-2"
       inkscape:connector-curvature="0"
       sodipodi:nodetypes="cscccsc" />
    <path
       style="fill:#decd87;fill-rule:evenodd;stroke:#000000;stroke-width:1.8363502px;stroke-linecap:butt;stroke-linejoin:miter;stroke-opacity:1"
       d="m 222.51623,425.34006 c 0,0 -3.10517,-0.3258 -5.11776,-3.5184 -2.73697,-4.3418 -5.14886,-8.1787 -12.34492,-5.6602 -5.27078,1.8447 -4.85429,10.9672 1.57869,12.8992 6.31585,2.6074 16.25486,1.0722 16.25486,1.0722 z"
       id="path4703-3"
       inkscape:connector-curvature="0"
       sodipodi:nodetypes="cssccc" />
    <path
       style="fill:#decd87;fill-rule:evenodd;stroke:#000000;stroke-width:1.8363502px;stroke-linecap:butt;stroke-linejoin:miter;stroke-opacity:1"
       d="m 223.66167,428.08236 c 0,0 -9.09313,3.7569 -6.73122,8.3384 1.51706,2.2386 2.18927,4.1634 5.37939,3.0582 3.19012,-1.1051 2.00543,-4.0212 2.00543,-4.0212 l 1.41093,-4.8416 z"
       id="path4705-0"
       inkscape:connector-curvature="0"
       sodipodi:nodetypes="cccccc" />
    <path
       style="fill:#decd87;fill-rule:evenodd;stroke:#000000;stroke-width:1.8363502px;stroke-linecap:butt;stroke-linejoin:miter;stroke-opacity:1"
       d="m 257.36545,434.65256 c 0,0 -4.51076,2.8669 -1.60457,5.0286 2.90618,2.1617 5.91261,-0.8339 5.91261,-0.8339 0,0 2.80729,-3.8919 0.38973,-5.6162 z"
       id="path4707-5"
       inkscape:connector-curvature="0"
       sodipodi:nodetypes="ccccc" />
    <ellipse
       style="color:#000000;clip-rule:nonzero;display:inline;overflow:visible;visibility:visible;opacity:1;isolation:auto;mix-blend-mode:normal;color-interpolation:sRGB;color-interpolation-filters:linearRGB;solid-color:#000000;solid-opacity:1;fill:#008000;fill-opacity:0.59523806;fill-rule:evenodd;stroke:#000000;stroke-width:1.00074983;stroke-linecap:butt;stroke-linejoin:miter;stroke-miterlimit:4;stroke-dasharray:none;stroke-dashoffset:0;stroke-opacity:1;color-rendering:auto;image-rendering:auto;shape-rendering:auto;text-rendering:auto;enable-background:accumulate"
       id="path4717-1"
       cx="77.568779"
       cy="459.29605"
       rx="3.8761241"
       ry="2.4511561"
       transform="matrix(0.97101701,-0.23901039,0.29178079,0.95648522,0,0)" />
    <path
       style="fill:#112b00;fill-rule:evenodd;stroke:#000000;stroke-width:1px;stroke-linecap:butt;stroke-linejoin:miter;stroke-opacity:1"
       d="m 231.34044,419.54056 -3.06604,4.717 4.71698,4.0094 c 0,0 2.12264,-4.4811 1.88679,-5.4245 -0.23585,-0.9434 -3.53773,-3.3019 -3.53773,-3.3019 z"
       id="path4746-7"
       inkscape:connector-curvature="0" />
    <path
       style="fill:#112b00;fill-rule:evenodd;stroke:#000000;stroke-width:1px;stroke-linecap:butt;stroke-linejoin:miter;stroke-opacity:1"
       d="m 238.65176,425.43676 5.42453,-1.1792 -0.9434,6.6037 -6.60378,-1.8868 z"
       id="path4748-5"
       inkscape:connector-curvature="0" />
    <path
       style="fill:#112b00;fill-rule:evenodd;stroke:#000000;stroke-width:1px;stroke-linecap:butt;stroke-linejoin:miter;stroke-opacity:1"
       d="m 247.37818,425.43676 -0.23585,5.4245 6.60377,0.2359 -0.9434,-4.9528 z"
       id="path4750-9"
       inkscape:connector-curvature="0" />
    <path
       style="fill:#112b00;fill-rule:evenodd;stroke:#000000;stroke-width:1px;stroke-linecap:butt;stroke-linejoin:miter;stroke-opacity:1"
       d="m 258.93478,424.02176 -3.53774,2.5943 0.70755,3.7735 5.89623,-0.2359 z"
       id="path4752-0"
       inkscape:connector-curvature="0"
       sodipodi:nodetypes="ccccc" />
    <path
       style="fill:#112b00;fill-rule:evenodd;stroke:#000000;stroke-width:1px;stroke-linecap:butt;stroke-linejoin:miter;stroke-opacity:1"
       d="m 238.41591,407.04056 1.17925,2.8302 7.07547,2.5943 4.48113,-1.4151 -6.60377,-3.5377 z"
       id="path4756-6"
       inkscape:connector-curvature="0"
       sodipodi:nodetypes="cccccc" />
    <path
       style="fill:#112b00;fill-rule:evenodd;stroke:#000000;stroke-width:1px;stroke-linecap:butt;stroke-linejoin:miter;stroke-opacity:1"
       d="m 225.68006,423.07826 4.24528,-5.1887 -2.35849,-1.8868 -5.42453,5.8963 z"
       id="path4758-0"
       inkscape:connector-curvature="0" />
    <path
       style="fill:#112b00;fill-rule:evenodd;stroke:#000000;stroke-width:1px;stroke-linecap:butt;stroke-linejoin:miter;stroke-opacity:1"
       d="m 225.20836,414.82356 -4.48113,4.717 -1.65095,-2.3585 3.77359,-4.0094 z"
       id="path4760-4"
       inkscape:connector-curvature="0" />
    <path
       style="fill:#112b00;fill-rule:evenodd;stroke:#000000;stroke-width:1px;stroke-linecap:butt;stroke-linejoin:miter;stroke-opacity:1"
       d="m 225.20836,411.05006 5.66038,3.7735 5.66037,-4.717 -2.59434,-2.5943 -4.95283,1.4151 z"
       id="path4762-8"
       inkscape:connector-curvature="0"
       sodipodi:nodetypes="cccccc" />
    <path
       style="fill:#112b00;fill-rule:evenodd;stroke:#000000;stroke-width:1px;stroke-linecap:butt;stroke-linejoin:miter;stroke-opacity:1"
       d="m 237.00082,420.71976 -3.06605,-4.0094 5.18869,-4.717 5.42453,3.0661 -0.4717,6.132 z"
       id="path4764-7"
       inkscape:connector-curvature="0" />
    <path
       style="fill:#112b00;fill-rule:evenodd;stroke:#000000;stroke-width:1px;stroke-linecap:butt;stroke-linejoin:miter;stroke-opacity:1"
       d="m 253.51025,413.64436 -5.89622,2.1226 -0.4717,6.1321 6.13207,1.8868 4.71698,-3.7736 z"
       id="path4766-7"
       inkscape:connector-curvature="0"
       sodipodi:nodetypes="cccccc" />
    <ellipse
       style="color:#000000;clip-rule:nonzero;display:inline;overflow:visible;visibility:visible;opacity:1;isolation:auto;mix-blend-mode:normal;color-interpolation:sRGB;color-interpolation-filters:linearRGB;solid-color:#000000;solid-opacity:1;fill:#000000;fill-opacity:1;fill-rule:evenodd;stroke:none;stroke-width:2;stroke-linecap:butt;stroke-linejoin:miter;stroke-miterlimit:4;stroke-dasharray:none;stroke-dashoffset:0;stroke-opacity:1;color-rendering:auto;image-rendering:auto;shape-rendering:auto;text-rendering:auto;enable-background:accumulate"
       id="path4770-2"
       cx="204.62405"
       cy="422.70233"
       rx="2.1458037"
       ry="1.5649711"
       transform="matrix(0.99997245,-0.00742227,0.00810043,0.99996719,0,0)" />
    <path
       style="fill:#000000;fill-opacity:1;fill-rule:evenodd;stroke:#000000;stroke-width:1.06411386px;stroke-linecap:butt;stroke-linejoin:miter;stroke-opacity:1"
       d="m 201.93505,423.46926 c 0,0 0.972,1.296 2.5272,1.62 1.5552,0.324 3.30479,0.6481 3.30479,0.6481 l -1.16639,0.6479 c 0,0 -2.916,-0.1619 -3.6936,-0.486 -0.7776,-0.324 -0.972,-2.43 -0.972,-2.43 z"
       id="path4776-1"
       inkscape:connector-curvature="0" />
  </g>
</svg>
