<?xml version="1.0" encoding="UTF-8" standalone="no"?>
<!-- Created with Inkscape (http://www.inkscape.org/) -->

<svg
   xmlns:dc="http://purl.org/dc/elements/1.1/"
   xmlns:cc="http://creativecommons.org/ns#"
   xmlns:rdf="http://www.w3.org/1999/02/22-rdf-syntax-ns#"
   xmlns:svg="http://www.w3.org/2000/svg"
   xmlns="http://www.w3.org/2000/svg"
   xmlns:sodipodi="http://sodipodi.sourceforge.net/DTD/sodipodi-0.dtd"
   xmlns:inkscape="http://www.inkscape.org/namespaces/inkscape"
   width="68"
   height="35"
   viewBox="0 0 68.000001 34.999998"
   id="svg4207"
   version="1.1"
   inkscape:version="0.91 r13725"
   sodipodi:docname="tortuga_small_0_1.svg">
  <defs
     id="defs4209" />
  <sodipodi:namedview
     id="base"
     pagecolor="#ffffff"
     bordercolor="#666666"
     borderopacity="1.0"
     inkscape:pageopacity="0.0"
     inkscape:pageshadow="2"
     inkscape:zoom="2.8"
     inkscape:cx="55.914496"
     inkscape:cy="22.712301"
     inkscape:document-units="px"
     inkscape:current-layer="layer1"
     showgrid="false"
     units="px"
     fit-margin-top="0"
     fit-margin-left="0"
     fit-margin-right="0"
     fit-margin-bottom="0"
     inkscape:window-width="1366"
     inkscape:window-height="720"
     inkscape:window-x="0"
     inkscape:window-y="0"
     inkscape:window-maximized="1" />
  <metadata
     id="metadata4212">
    <rdf:RDF>
      <cc:Work
         rdf:about="">
        <dc:format>image/svg+xml</dc:format>
        <dc:type
           rdf:resource="http://purl.org/dc/dcmitype/StillImage" />
        <dc:title></dc:title>
      </cc:Work>
    </rdf:RDF>
  </metadata>
  <g
     inkscape:label="Layer 1"
     inkscape:groupmode="layer"
     id="layer1"
     transform="translate(12.343068,-1020.0745)">
    <path
       style="fill:#00ff00;fill-rule:evenodd;stroke:#000000;stroke-width:1.8363502px;stroke-linecap:butt;stroke-linejoin:miter;stroke-opacity:1"
       d="m 9.9552739,1039.277 4.9027471,7.2325 c 0,0 8.722791,4.6296 18.47227,4.5555 9.749462,-0.074 12.297445,-4.3952 12.297445,-4.3952 z"
       id="path4701"
       inkscape:connector-curvature="0"
       sodipodi:nodetypes="ccccc" />
    <path
       style="fill:#008000;fill-rule:evenodd;stroke:#000000;stroke-width:1.8363502px;stroke-linecap:butt;stroke-linejoin:miter;stroke-opacity:1"
       d="m 5.4608175,1036.7759 c 0,0 -0.636198,-3.8965 1.97621,-7.0809 3.9958885,-4.8707 12.8725055,-9.6017 21.9405115,-8.137 14.996456,2.4226 18.587898,20.0745 24.560121,22.9438 2.906183,2.1616 -12.812428,4.7388 -25.442481,3.1147 -7.140556,-0.9185 -10.905034,-4.5894 -15.144792,-7.3236 -3.259449,-2.1021 -7.8895695,-3.517 -7.8895695,-3.517 z"
       id="path4699"
       inkscape:connector-curvature="0"
       sodipodi:nodetypes="cscccsc" />
    <path
       style="fill:#decd87;fill-rule:evenodd;stroke:#000000;stroke-width:1.8363502px;stroke-linecap:butt;stroke-linejoin:miter;stroke-opacity:1"
       d="m 9.6590879,1039.488 c 0,0 -3.1051684,-0.3258 -5.1177604,-3.5184 -2.736972,-4.3418 -5.14886105,-8.1787 -12.3449129,-5.6602 -5.2707806,1.8447 -4.8542966,10.9672 1.5786895,12.8992 6.31584135,2.6074 16.2548539,1.0722 16.2548539,1.0722 z"
       id="path4703"
       inkscape:connector-curvature="0"
       sodipodi:nodetypes="cssccc" />
    <path
       style="fill:#decd87;fill-rule:evenodd;stroke:#000000;stroke-width:1.8363502px;stroke-linecap:butt;stroke-linejoin:miter;stroke-opacity:1"
       d="m 10.804531,1042.2303 c 0,0 -6.1402985,3.9927 -3.7783915,8.5742 1.5170604,2.2386 2.1892664,4.1634 5.3793875,3.0582 3.190127,-1.1051 1.297887,-4.9645 1.297887,-4.9645 l -0.834357,-4.1341 z"
       id="path4705"
       inkscape:connector-curvature="0"
       sodipodi:nodetypes="cccccc" />
    <path
       style="fill:#decd87;fill-rule:evenodd;stroke:#000000;stroke-width:1.8363502px;stroke-linecap:butt;stroke-linejoin:miter;stroke-opacity:1"
       d="m 45.215856,1047.6213 c 0,0 -5.454155,2.1593 -2.547966,4.321 2.906182,2.1617 8.978644,1.9962 8.978644,1.9962 0,0 3.986534,-2.7126 1.568972,-4.4369 -2.417552,-1.7242 -7.99965,-1.8803 -7.99965,-1.8803 z"
       id="path4707"
       inkscape:connector-curvature="0"
       sodipodi:nodetypes="ccccc" />
    <ellipse
       style="color:#000000;clip-rule:nonzero;display:inline;overflow:visible;visibility:visible;opacity:1;isolation:auto;mix-blend-mode:normal;color-interpolation:sRGB;color-interpolation-filters:linearRGB;solid-color:#000000;solid-opacity:1;fill:#008000;fill-opacity:0.59523806;fill-rule:evenodd;stroke:#000000;stroke-width:1.00074983;stroke-linecap:butt;stroke-linejoin:miter;stroke-miterlimit:4;stroke-dasharray:none;stroke-dashoffset:0;stroke-opacity:1;color-rendering:auto;image-rendering:auto;shape-rendering:auto;text-rendering:auto;enable-background:accumulate"
       id="path4717"
       cx="-305.79672"
       cy="1005.5875"
       rx="3.8761241"
       ry="2.4511561"
       transform="matrix(0.97101701,-0.23901039,0.29178079,0.95648522,0,0)" />
    <path
       style="fill:#112b00;fill-rule:evenodd;stroke:#000000;stroke-width:1px;stroke-linecap:butt;stroke-linejoin:miter;stroke-opacity:1"
       d="m 18.483296,1033.6885 -3.066038,4.717 4.716981,4.0094 c 0,0 2.122642,-4.4811 1.886792,-5.4245 -0.235849,-0.9434 -3.537735,-3.3019 -3.537735,-3.3019 z"
       id="path4746"
       inkscape:connector-curvature="0" />
    <path
       style="fill:#112b00;fill-rule:evenodd;stroke:#000000;stroke-width:1px;stroke-linecap:butt;stroke-linejoin:miter;stroke-opacity:1"
       d="m 25.794616,1039.5847 5.424529,-1.1792 -0.943397,6.6037 -6.603773,-1.8868 z"
       id="path4748"
       inkscape:connector-curvature="0" />
    <path
       style="fill:#112b00;fill-rule:evenodd;stroke:#000000;stroke-width:1px;stroke-linecap:butt;stroke-linejoin:miter;stroke-opacity:1"
       d="m 34.521031,1039.5847 -0.235849,5.4245 6.603774,0.2359 -0.943396,-4.9528 z"
       id="path4750"
       inkscape:connector-curvature="0" />
    <path
       style="fill:#112b00;fill-rule:evenodd;stroke:#000000;stroke-width:1px;stroke-linecap:butt;stroke-linejoin:miter;stroke-opacity:1"
       d="m 46.077635,1038.1697 -3.537736,2.5943 0.707548,3.7735 5.896225,-0.2359 z"
       id="path4752"
       inkscape:connector-curvature="0"
       sodipodi:nodetypes="ccccc" />
    <path
       style="fill:#112b00;fill-rule:evenodd;stroke:#000000;stroke-width:1px;stroke-linecap:butt;stroke-linejoin:miter;stroke-opacity:1"
       d="m 25.558767,1021.1885 1.179246,2.8302 7.075471,2.5943 4.481132,-1.4151 -6.603773,-3.5377 z"
       id="path4756"
       inkscape:connector-curvature="0"
       sodipodi:nodetypes="cccccc" />
    <path
       style="fill:#112b00;fill-rule:evenodd;stroke:#000000;stroke-width:1px;stroke-linecap:butt;stroke-linejoin:miter;stroke-opacity:1"
       d="m 12.822918,1037.2262 4.245283,-5.1887 -2.35849,-1.8868 -5.4245291,5.8963 z"
       id="path4758"
       inkscape:connector-curvature="0" />
    <path
       style="fill:#112b00;fill-rule:evenodd;stroke:#000000;stroke-width:1px;stroke-linecap:butt;stroke-linejoin:miter;stroke-opacity:1"
       d="m 12.35122,1028.9715 -4.4811321,4.717 -1.6509434,-2.3585 3.7735854,-4.0094 z"
       id="path4760"
       inkscape:connector-curvature="0" />
    <path
       style="fill:#112b00;fill-rule:evenodd;stroke:#000000;stroke-width:1px;stroke-linecap:butt;stroke-linejoin:miter;stroke-opacity:1"
       d="m 12.35122,1025.198 5.660377,3.7735 5.660378,-4.717 -2.59434,-2.5943 -4.95283,1.4151 z"
       id="path4762"
       inkscape:connector-curvature="0"
       sodipodi:nodetypes="cccccc" />
    <path
       style="fill:#112b00;fill-rule:evenodd;stroke:#000000;stroke-width:1px;stroke-linecap:butt;stroke-linejoin:miter;stroke-opacity:1"
       d="m 24.143673,1034.8677 -3.066038,-4.0094 5.188679,-4.717 5.424529,3.0661 -0.471698,6.132 z"
       id="path4764"
       inkscape:connector-curvature="0" />
    <path
       style="fill:#112b00;fill-rule:evenodd;stroke:#000000;stroke-width:1px;stroke-linecap:butt;stroke-linejoin:miter;stroke-opacity:1"
       d="m 40.653106,1027.7923 -5.896225,2.1226 -0.471699,6.1321 6.132076,1.8868 4.716981,-3.7736 z"
       id="path4766"
       inkscape:connector-curvature="0"
       sodipodi:nodetypes="cccccc" />
    <ellipse
       style="color:#000000;clip-rule:nonzero;display:inline;overflow:visible;visibility:visible;opacity:1;isolation:auto;mix-blend-mode:normal;color-interpolation:sRGB;color-interpolation-filters:linearRGB;solid-color:#000000;solid-opacity:1;fill:#000000;fill-opacity:1;fill-rule:evenodd;stroke:none;stroke-width:2;stroke-linecap:butt;stroke-linejoin:miter;stroke-miterlimit:4;stroke-dasharray:none;stroke-dashoffset:0;stroke-opacity:1;color-rendering:auto;image-rendering:auto;shape-rendering:auto;text-rendering:auto;enable-background:accumulate"
       id="path4770"
       cx="-13.201021"
       cy="1035.2535"
       rx="2.1458037"
       ry="1.5649711"
       transform="matrix(0.99997245,-0.00742227,0.00810043,0.99996719,0,0)" />
    <path
       style="fill:#000000;fill-opacity:1;fill-rule:evenodd;stroke:#000000;stroke-width:1.06411386px;stroke-linecap:butt;stroke-linejoin:miter;stroke-opacity:1"
       d="m -10.922085,1037.6172 c 0,0 0.9719983,1.296 2.5271953,1.62 1.5551971,0.324 3.3047937,0.6481 3.3047937,0.6481 l -1.1663977,0.6479 c 0,0 -2.9159944,-0.1619 -3.693593,-0.486 -0.7775983,-0.324 -0.9719983,-2.43 -0.9719983,-2.43 z"
       id="path4776"
       inkscape:connector-curvature="0" />
  </g>
</svg>
